<svg id="Layer_1" data-name="Layer 1" xmlns="http://www.w3.org/2000/svg" viewBox="0 0 500 350">
    <defs>
        <style>.cls-1{fill:#9775fa;}</style>
    </defs>
    <title>logo_shadow</title>
    <path class="cls-1"
          d="M130.45,103.36c6-.31,10.66,3.76,11.6,11.29,2.82,20.06,2.51,53,0,72.73-1.25,9.09-4.39,17.87-15,20.38-16.3,3.76-41.38,6.27-53.92,4.7-11.29-1.25-17.55-6.9-16.3-17.87,2.51-20.69-1.57-49.22-13.48-78.69l30.41-16,4.7,16C95.65,109,117,104.3,130.45,103.36ZM87.5,183.61c7.84,0,17.56,0,23.51-.94,2.51-13.48,3.13-40.13,1.25-47.65a258.86,258.86,0,0,0-28.21,8.78A272.6,272.6,0,0,1,87.5,183.61ZM203.81,41.29c16,16.3,30.09,32.92,36.37,42,3.13,29.78,2.82,106.27,2.19,132.92h-32c.63-7.84.94-33.23.94-59.25-6.58.94-13.17,1.57-20.06,1.88,0,25.71-.31,50.16-.31,57.37H159.29c.31-10,1.25-83.39,0-103.45-5.33-7.52-11.6-15-23.2-26.33l22.57-23.2C171.2,76.09,184.06,90.82,190,99.6c.63,8.15.94,19.44,1.25,31.66,6.9-.63,13.48-1.57,20.06-2.51-.31-14.11-.94-26.33-1.57-32.92-5-7.52-14.42-18.81-27.27-31.66Zm35.74,205.34c1.88,21.94.63,53.29-2.51,69H205.69c1.88-10.66,1.88-40.75,1.57-50.79-17.87,2.19-50.79,1.57-60.82,0V236.59c17.87,2.19,53.61,2.19,79.63-.94C235.15,234.71,238.92,239.1,239.54,246.63Z"/>
    <path class="cls-1"
          d="M306,144.74c13.48,0,33.23-2.51,45.77-6.58.94-6.27.94-10.35-.94-18.5-22.57,4.08-48,6.27-64.27,6V98c27.27.31,46.71-.94,78.37-7.84,9.09-1.88,17.24.31,18.18,11.6,1.57,21.32,1.25,31.66-.31,44.52-1.57,12.54-6.9,15.67-12.85,16.93-12.23,2.51-34.8,5-47.34,7.84a54.56,54.56,0,0,1,1.57,20.38c13.79.31,48.91-3.76,64.58-11.29l8.78,26.65c-15,6.27-62.38,14.73-86.52,12.85-11.6-.94-17.24-6.58-16.62-17.87.63-8.46-1.88-27.9-4.39-34.8C284.06,150.38,288.76,144.74,306,144.74ZM453,246.63c1.88,21.94.63,53.29-2.51,69H419.18c1.88-10.66,1.88-40.75,1.57-50.79-17.87,2.19-47.65,1.57-57.68,0V236.59c17.87,2.19,50.47,2.19,76.49-.94C448.65,234.71,452.41,239.1,453,246.63ZM416.36,41.29c16,16.3,30.09,32.92,36.37,42,.94,10,1.57,25.08,1.88,42a277.94,277.94,0,0,0,39.81-4.7v28.21c-11.91,2.51-25.08,3.76-39.19,4.39.31,25.39,0,50.16-.31,63h-32.6c1.25-15.36,1.25-98.44-1.25-120.07a258.06,258.06,0,0,0-27-32Z"/>
</svg>
